{"title":"Crossing Lines S03E05 720p HDTV x264-SKGTV[rartv]","uid":12586978,"size":885884253,"categoryP":"video","categoryS":"hd___tv_shows","magnet":"?xt=urn:btih:493a468f3848c764877a2cb926dafd573ec136e8&amp;dn=Crossing+Lines+S03E05+720p+HDTV+x264-SKGTV%5Brartv%5D&amp;tr=udp%3A%2F%2Ftracker.leechers-paradise.org%3A6969&amp;tr=udp%3A%2F%2Fzer0day.ch%3A1337&amp;tr=udp%3A%2F%2Fopen.demonii.com%3A1337&amp;tr=udp%3A%2F%2Ftracker.coppersurfer.tk%3A6969&amp;tr=udp%3A%2F%2Fexodus.desync.com%3A6969","seeders":0,"leechers":0,"uploader":"TheRival","files":4,"time":1445036791,"description":"Video\r\nID                                       : 1\r\nFormat                                   : AVC\r\nFormat/Info                              : Advanced Video Codec\r\nFormat profile                           :   \r\nFormat settings, CABAC                   : Yes\r\nFormat settings, ReFrames                : 5 frames\r\nMuxing mode                              : Header stripping\r\nCodec ID                                 : V_MPEG4/ISO/AVC\r\nDuration                                 : 45mn 4s\r\nBit rate                                 : 2 376 Kbps\r\nWidth                                    : 1 280 pixels\r\nHeight                                   : 720 pixels\r\nDisplay aspect ratio                     : 16:9\r\nFrame rate mode                          : Constant\r\nFrame rate                               : 25.000 fps\r\nColor space                              : YUV\r\nChroma subsampling                       : 4:2:0\r\nBit depth                                : 8 bits\r\nScan type                                : Progressive\r\nBits/(Pixel*Frame)                       : 0.103\r\nStream size                              : 766 MiB (91%)\r\nWriting library                          : x264 core 148 r2597 e86f3a1\r\nEncoding settings                        : cabac=1 / ref=5 / deblock=1:0:0 / analyse=0x3:0x113 / me=umh / subme=8 / psy=1 / psy_rd=1.00:0.00 / mixed_ref=1 / me_range=16 / chroma_me=1 / trellis=1 / 8x8dct=1 / cqm=0 / deadzone=21,11 / fast_pskip=1 / chroma_qp_offset=-2 / threads=12 / lookahead_threads=2 / sliced_threads=0 / nr=0 / decimate=1 / interlaced=0 / bluray_compat=0 / constrained_intra=0 / bframes=3 / b_pyramid=2 / b_adapt=2 / b_bias=0 / direct=3 / weightb=1 / open_gop=0 / weightp=2 / keyint=250 / keyint_min=25 / scenecut=40 / intra_refresh=0 / rc_lookahead=50 / rc=crf / mbtree=1 / crf=18.0 / qcomp=0.60 / qpmin=0 / qpmax=69 / qpstep=4 / ip_ratio=1.40 / aq=1:1.00\r\nLanguage                                 : English\r\nDefault                                  : Yes\r\nForced                                   : No\r\nColor range                              : Limited\r\nMatrix coefficients                      : BT.709\r\n\r\nAudio\r\nID                                       : 2\r\nFormat                                   : AC-3\r\nFormat/Info                              : Audio Coding 3\r\nMode extension                           : CM (complete main)\r\nFormat settings, Endianness              : Big\r\nMuxing mode                              : Header stripping\r\nCodec ID                                 : A_AC3\r\nDuration                                 : 45mn 4s\r\nBit rate mode                            : Constant\r\nBit rate                                 : 192 Kbps\r\nChannel(s)                               : 2 channels\r\nChannel positions                        : Front: L R\r\nSampling rate                            : 48.0 KHz\r\nCompression mode                         : Lossy\r\nStream size                              : 61.9 MiB (7%)\r\nDefault                                  : Yes\r\nForced                                   : No","torrent":{"xt":"urn:btih:493a468f3848c764877a2cb926dafd573ec136e8","amp;dn":"Crossing+Lines+S03E05+720p+HDTV+x264-SKGTV%5Brartv%5D","amp;tr":["udp%3A%2F%2Ftracker.leechers-paradise.org%3A6969","udp%3A%2F%2Fzer0day.ch%3A1337","udp%3A%2F%2Fopen.demonii.com%3A1337","udp%3A%2F%2Ftracker.coppersurfer.tk%3A6969","udp%3A%2F%2Fexodus.desync.com%3A6969"],"infoHash":"493a468f3848c764877a2cb926dafd573ec136e8","infoHashBuffer":{"type":"Buffer","data":[73,58,70,143,56,72,199,100,135,122,44,185,38,218,253,87,62,193,54,232]},"announce":[],"urlList":[]}}